<svg xmlns="http://www.w3.org/2000/svg" viewBox="0 0 662 662"><defs><style>.cls-1{fill:none;stroke:#000;stroke-miterlimit:10;stroke-width:15px;}</style></defs><g id="Ebene_2" data-name="Ebene 2"><g id="Ebene_1-2" data-name="Ebene 1"><path d="M460.48,327h0v-.59h0V254.18a19.17,19.17,0,0,0-38.34,0v72.26a90.72,90.72,0,0,1-181.43,0h0V254.18a19.17,19.17,0,0,0-38.34,0V327h0a129.08,129.08,0,0,0,109.87,127v27.57h-67.8a19.15,19.15,0,0,0,0,38.3v0H418.26a19.17,19.17,0,1,0,0-38.33H350.62V454.06A129.07,129.07,0,0,0,460.49,327Z"/><path d="M266.51,325.92a65,65,0,1,0,130.07,0c0-.49-.06-.95-.07-1.43h.27V206.21h-.27a65,65,0,0,0-129.92,0h-.26V324.49h.26c0,.48-.07.94-.07,1.43Z"/><circle class="cls-1" cx="331" cy="331" r="323.5"/></g></g></svg>